# xmcd
#
# Track frame offsets:
#	150
#	32503
#	51522
#	77312
#	95624
#	130456
#	155368
#	176783
#	197611
#
# Disc length: 3042 seconds
#
# Revision: 0
# Processed by: cddbd v1.5.2PL0 Copyright (c) Steve Scherf et al.
# Submitted via: EasyCDDAExtractor 11.0.3.1
#
DISCID=700be009
DTITLE=Martina Mcbride - Live In Concert (Bonus DVD) [cd2]
DYEAR=2008
DGENRE=Country
TTITLE0=Concrete Angel
TTITLE1=For These Times
TTITLE2=Medley: Love's The Only House/blessed
TTITLE3=This One's For The Girls
TTITLE4=A Broken Wing
TTITLE5=Independence Day
TTITLE6=Don't Stop Believin'
TTITLE7=Hit Me With Your Best Shot
TTITLE8=Over The Rainbow
EXTD=
EXTT0=
EXTT1=
EXTT2=
EXTT3=
EXTT4=
EXTT5=
EXTT6=
EXTT7=
EXTT8=
PLAYORDER=
